<mxfile host="app.diagrams.net" modified="2022-07-26T10:57:22.668Z" agent="5.0 (Windows NT 10.0; Win64; x64) AppleWebKit/537.36 (KHTML, like Gecko) Chrome/103.0.0.0 Safari/537.36" etag="b0Xnwd_ld7-yYPfkVGZy" version="20.2.0" type="github">
  <diagram id="ZaiHrg7XH6bP_6x4DZ9I" name="第 1 页">
    <mxGraphModel dx="2765" dy="1044" grid="1" gridSize="10" guides="1" tooltips="1" connect="1" arrows="1" fold="1" page="1" pageScale="1" pageWidth="827" pageHeight="1169" math="0" shadow="0">
      <root>
        <mxCell id="0" />
        <mxCell id="1" parent="0" />
        <mxCell id="hkyJZGekehyzIMk_bXFv-1" value="链路追踪jaeger" style="rounded=1;whiteSpace=wrap;html=1;strokeWidth=2;fillWeight=4;hachureGap=8;hachureAngle=45;fillColor=#f5f5f5;sketch=1;strokeColor=#666666;fontColor=#333333;" vertex="1" parent="1">
          <mxGeometry x="-290" y="480" width="120" height="60" as="geometry" />
        </mxCell>
        <mxCell id="hkyJZGekehyzIMk_bXFv-2" value="微服务注册与发现consul" style="rounded=1;whiteSpace=wrap;html=1;strokeWidth=2;fillWeight=4;hachureGap=8;hachureAngle=45;fillColor=#f5f5f5;sketch=1;strokeColor=#666666;fontColor=#333333;" vertex="1" parent="1">
          <mxGeometry x="-290" y="340" width="120" height="60" as="geometry" />
        </mxCell>
        <mxCell id="hkyJZGekehyzIMk_bXFv-3" value="redis缓存" style="rounded=1;whiteSpace=wrap;html=1;strokeWidth=2;fillWeight=4;hachureGap=8;hachureAngle=45;fillColor=#f5f5f5;sketch=1;strokeColor=#666666;fontColor=#333333;" vertex="1" parent="1">
          <mxGeometry x="-55" y="1260" width="120" height="60" as="geometry" />
        </mxCell>
        <mxCell id="hkyJZGekehyzIMk_bXFv-4" value="mysql数据库" style="rounded=1;whiteSpace=wrap;html=1;strokeWidth=2;fillWeight=4;hachureGap=8;hachureAngle=45;fillColor=#f5f5f5;sketch=1;strokeColor=#666666;fontColor=#333333;" vertex="1" parent="1">
          <mxGeometry x="-235" y="1260" width="120" height="60" as="geometry" />
        </mxCell>
        <mxCell id="hkyJZGekehyzIMk_bXFv-5" value="Apollo配置中心" style="rounded=1;whiteSpace=wrap;html=1;strokeWidth=2;fillWeight=4;hachureGap=8;hachureAngle=45;fillColor=#f5f5f5;sketch=1;strokeColor=#666666;fontColor=#333333;" vertex="1" parent="1">
          <mxGeometry x="210" y="240" width="120" height="60" as="geometry" />
        </mxCell>
        <mxCell id="hkyJZGekehyzIMk_bXFv-6" value="kratos框架" style="rounded=1;whiteSpace=wrap;html=1;strokeWidth=2;fillWeight=4;hachureGap=8;hachureAngle=45;fillColor=#f5f5f5;sketch=1;strokeColor=#666666;fontColor=#333333;" vertex="1" parent="1">
          <mxGeometry x="-55" y="540" width="120" height="60" as="geometry" />
        </mxCell>
        <mxCell id="hkyJZGekehyzIMk_bXFv-7" value="fork版本管理" style="rounded=1;whiteSpace=wrap;html=1;strokeWidth=2;fillWeight=4;hachureGap=8;hachureAngle=45;fillColor=#f5f5f5;sketch=1;strokeColor=#666666;fontColor=#333333;" vertex="1" parent="1">
          <mxGeometry x="-290" y="620" width="120" height="60" as="geometry" />
        </mxCell>
        <mxCell id="hkyJZGekehyzIMk_bXFv-13" value="" style="edgeStyle=orthogonalEdgeStyle;rounded=0;orthogonalLoop=1;jettySize=auto;html=1;" edge="1" parent="1" source="hkyJZGekehyzIMk_bXFv-9" target="hkyJZGekehyzIMk_bXFv-12">
          <mxGeometry relative="1" as="geometry" />
        </mxCell>
        <mxCell id="hkyJZGekehyzIMk_bXFv-9" value="excel2pb" style="rounded=1;whiteSpace=wrap;html=1;strokeWidth=2;fillWeight=4;hachureGap=8;hachureAngle=45;fillColor=#f5f5f5;sketch=1;strokeColor=#666666;fontColor=#333333;" vertex="1" parent="1">
          <mxGeometry x="160" y="400" width="120" height="60" as="geometry" />
        </mxCell>
        <mxCell id="hkyJZGekehyzIMk_bXFv-11" value="" style="edgeStyle=orthogonalEdgeStyle;rounded=0;orthogonalLoop=1;jettySize=auto;html=1;" edge="1" parent="1" source="hkyJZGekehyzIMk_bXFv-10" target="hkyJZGekehyzIMk_bXFv-9">
          <mxGeometry relative="1" as="geometry" />
        </mxCell>
        <mxCell id="hkyJZGekehyzIMk_bXFv-10" value="excel" style="rounded=0;whiteSpace=wrap;html=1;" vertex="1" parent="1">
          <mxGeometry y="400" width="120" height="60" as="geometry" />
        </mxCell>
        <mxCell id="hkyJZGekehyzIMk_bXFv-12" value="定义：protos&lt;br&gt;数据：bytes" style="rounded=1;whiteSpace=wrap;html=1;strokeWidth=2;fillWeight=4;hachureGap=8;hachureAngle=45;fillColor=#f5f5f5;sketch=1;strokeColor=#666666;fontColor=#333333;" vertex="1" parent="1">
          <mxGeometry x="360" y="400" width="120" height="60" as="geometry" />
        </mxCell>
        <mxCell id="hkyJZGekehyzIMk_bXFv-27" value="" style="shape=ext;double=1;rounded=1;whiteSpace=wrap;html=1;" vertex="1" parent="1">
          <mxGeometry x="-455" y="750" width="950" height="460" as="geometry" />
        </mxCell>
        <mxCell id="hkyJZGekehyzIMk_bXFv-18" value="" style="edgeStyle=orthogonalEdgeStyle;rounded=0;orthogonalLoop=1;jettySize=auto;html=1;" edge="1" parent="1" source="hkyJZGekehyzIMk_bXFv-14" target="hkyJZGekehyzIMk_bXFv-17">
          <mxGeometry relative="1" as="geometry" />
        </mxCell>
        <mxCell id="hkyJZGekehyzIMk_bXFv-14" value="biz" style="rounded=0;whiteSpace=wrap;html=1;" vertex="1" parent="1">
          <mxGeometry x="-115" y="840" width="120" height="60" as="geometry" />
        </mxCell>
        <mxCell id="hkyJZGekehyzIMk_bXFv-20" value="" style="edgeStyle=orthogonalEdgeStyle;rounded=0;orthogonalLoop=1;jettySize=auto;html=1;" edge="1" parent="1" source="hkyJZGekehyzIMk_bXFv-15" target="hkyJZGekehyzIMk_bXFv-19">
          <mxGeometry relative="1" as="geometry" />
        </mxCell>
        <mxCell id="hkyJZGekehyzIMk_bXFv-24" style="edgeStyle=orthogonalEdgeStyle;rounded=0;orthogonalLoop=1;jettySize=auto;html=1;entryX=0;entryY=0.5;entryDx=0;entryDy=0;" edge="1" parent="1" source="hkyJZGekehyzIMk_bXFv-15" target="hkyJZGekehyzIMk_bXFv-14">
          <mxGeometry relative="1" as="geometry" />
        </mxCell>
        <mxCell id="hkyJZGekehyzIMk_bXFv-25" value="实现" style="edgeLabel;html=1;align=center;verticalAlign=middle;resizable=0;points=[];" vertex="1" connectable="0" parent="hkyJZGekehyzIMk_bXFv-24">
          <mxGeometry x="0.1611" y="1" relative="1" as="geometry">
            <mxPoint as="offset" />
          </mxGeometry>
        </mxCell>
        <mxCell id="hkyJZGekehyzIMk_bXFv-15" value="data" style="rounded=0;whiteSpace=wrap;html=1;" vertex="1" parent="1">
          <mxGeometry x="-375" y="1050" width="120" height="60" as="geometry" />
        </mxCell>
        <mxCell id="hkyJZGekehyzIMk_bXFv-22" value="" style="edgeStyle=orthogonalEdgeStyle;rounded=0;orthogonalLoop=1;jettySize=auto;html=1;" edge="1" parent="1" source="hkyJZGekehyzIMk_bXFv-16" target="hkyJZGekehyzIMk_bXFv-21">
          <mxGeometry relative="1" as="geometry" />
        </mxCell>
        <mxCell id="hkyJZGekehyzIMk_bXFv-23" style="edgeStyle=orthogonalEdgeStyle;rounded=0;orthogonalLoop=1;jettySize=auto;html=1;entryX=0.5;entryY=1;entryDx=0;entryDy=0;" edge="1" parent="1" source="hkyJZGekehyzIMk_bXFv-16" target="hkyJZGekehyzIMk_bXFv-14">
          <mxGeometry relative="1" as="geometry" />
        </mxCell>
        <mxCell id="hkyJZGekehyzIMk_bXFv-16" value="service" style="rounded=0;whiteSpace=wrap;html=1;" vertex="1" parent="1">
          <mxGeometry x="125" y="1040" width="120" height="60" as="geometry" />
        </mxCell>
        <mxCell id="hkyJZGekehyzIMk_bXFv-17" value="接口+封装" style="ellipse;whiteSpace=wrap;html=1;rounded=0;" vertex="1" parent="1">
          <mxGeometry x="85" y="840" width="120" height="60" as="geometry" />
        </mxCell>
        <mxCell id="hkyJZGekehyzIMk_bXFv-19" value="数据基础服务" style="ellipse;whiteSpace=wrap;html=1;rounded=0;" vertex="1" parent="1">
          <mxGeometry x="-175" y="1050" width="120" height="60" as="geometry" />
        </mxCell>
        <mxCell id="hkyJZGekehyzIMk_bXFv-21" value="调用接口" style="ellipse;whiteSpace=wrap;html=1;rounded=0;" vertex="1" parent="1">
          <mxGeometry x="325" y="1040" width="120" height="60" as="geometry" />
        </mxCell>
        <mxCell id="hkyJZGekehyzIMk_bXFv-29" style="edgeStyle=orthogonalEdgeStyle;rounded=0;orthogonalLoop=1;jettySize=auto;html=1;entryX=1;entryY=1;entryDx=0;entryDy=0;" edge="1" parent="1" source="hkyJZGekehyzIMk_bXFv-3" target="hkyJZGekehyzIMk_bXFv-19">
          <mxGeometry relative="1" as="geometry" />
        </mxCell>
        <mxCell id="hkyJZGekehyzIMk_bXFv-28" style="edgeStyle=orthogonalEdgeStyle;rounded=0;orthogonalLoop=1;jettySize=auto;html=1;" edge="1" parent="1" source="hkyJZGekehyzIMk_bXFv-4" target="hkyJZGekehyzIMk_bXFv-19">
          <mxGeometry relative="1" as="geometry" />
        </mxCell>
      </root>
    </mxGraphModel>
  </diagram>
</mxfile>
